<svg xmlns="http://www.w3.org/2000/svg" viewBox="0 0 438.89 438.89"><defs><style>.cls-1{fill:#fff;}</style></defs><g id="Layer_2" data-name="Layer 2"><g id="Layer_1-2" data-name="Layer 1"><path class="cls-1" d="M322.79,179.48H305.63c0,3.7,0,7.18,0,10.65,0,3.7-1.87,5.64-5.59,5.65q-15.81,0-31.62,0c-4,0-5.7-2.26-5.69-6.09,0-3.31,0-6.62,0-10.2H245.61c0,3.46-.07,6.77,0,10.07.11,4.14-1.69,6.26-5.95,6.24q-15.33-.08-30.66,0c-4.18,0-6.2-1.85-6.07-6.1.11-3.32,0-6.63,0-10.2H179.49V203c3.51,0,6.82.1,10.12,0,4.21-.16,6.21,1.71,6.19,5.95q-.08,15.33,0,30.66c0,4.24-2,6.15-6.14,6.06-3.31-.06-6.63,0-10.18,0v17.11c3.49,0,6.8,0,10.1,0,4.12-.05,6.23,1.8,6.21,6-.05,10.22-.07,20.44,0,30.66,0,4.53-2.22,6.34-6.53,6.22-3.16-.08-6.32,0-9.76,0v17.18c3.6,0,7.21,0,10.81,0s5.4,1.69,5.42,5.21c0,10.69,0,21.39,0,32.09,0,3.55-1.93,5.27-5.37,5.33s-7,0-11.16,0c0,3.86,0,7.29,0,10.73.07,4-2,6-5.82,6-10.38.06-20.75,0-31.13,0-3.92,0-5.86-2.11-5.89-6,0-3.33,0-6.66,0-10.35h-17c0,3.49,0,6.8,0,10.11,0,4.12-1.94,6.24-6.11,6.23-10.22,0-20.44,0-30.66,0-4.11,0-6.15-2.05-6-6.27.1-3.18,0-6.37,0-10H59.44c0,3.35-.06,6.65,0,10,.1,4.18-1.92,6.28-6,6.29-10.22,0-20.44,0-30.66,0-4.13,0-6.2-2.05-6.2-6.18V365.48H6.12C2,365.49,0,363.61,0,359.35c.09-10.22,0-20.44,0-30.66,0-3.93,1.72-6,5.76-5.9,3.33.06,6.66,0,10.38,0V305.64H10.38C.14,305.63,0,305.53,0,295.1q0-12.23,0-24.43c0-6.85,1.12-7.92,8.16-7.94h8V245.62c-3.23,0-6.51-.06-9.78,0C2,245.74,0,243.83,0,239.33q.18-15.09,0-30.18c0-4.54,2.09-6.37,6.47-6.2,3.15.13,6.31,0,9.77,0V179.23c-3.61,0-7.07,0-10.54,0-3.69,0-5.65-1.83-5.66-5.57,0-10.54,0-21.08,0-31.62,0-3.79,2.05-5.52,5.66-5.6,3.35-.07,6.69,0,10.45,0v-17c-3.18,0-6.46,0-9.73,0C2.14,119.4,0,117.55,0,113,.12,103,.1,92.89,0,82.83c0-4.48,2-6.42,6.43-6.25,3.16.12,6.32,0,9.79,0V59.43H6C2,59.45,0,57.58,0,53.6c0-10.38,0-20.76,0-31.13,0-4,2.06-5.84,5.9-5.9,3.32-.05,6.65,0,10.64,0,0-3.84-.06-7.29,0-10.74.08-3.86,2-5.83,6-5.81Q37.91.1,53.24,0c4.5,0,6.35,2.18,6.22,6.51-.09,3.16,0,6.32,0,9.75H76.61c0-3.52,0-7,0-10.42,0-4,1.92-5.84,5.87-5.83Q98,.07,113.6,0c3.77,0,5.63,1.88,5.71,5.54.08,3.47,0,6.94,0,10.7H136.4c0-3.56,0-6.87,0-10.18,0-4.1,2-6.12,6.22-6.08,10.06.09,20.12,0,30.18.05,5,0,6.34,1.53,6.43,6.7.05,2.87.07,5.74.12,8.62,0,.14.11.28.34.8H203c0-3.39,0-6.83,0-10.27-.07-4,1.79-5.89,5.79-5.88q15.57,0,31.14,0c4,0,5.76,2.09,5.72,6,0,3.31,0,6.63,0,10.25h17.12V6.2c0-4.07,1.84-6.21,6.1-6.19q15.33.09,30.66,0c4.2,0,6.18,2,6.15,6.12,0,3.31,0,6.63,0,10.17h17.16c0-3.52.07-6.82,0-10.12-.11-4.18,1.76-6.2,6-6.17q15.33.09,30.66,0c4.29,0,6.08,2.09,6,6.19,0,3.31,0,6.62,0,10.36h10.63c4.15,0,6.12,2.12,6.11,6.24q0,15.09,0,30.18c0,4.31-1.87,6.58-6.35,6.47-3.18-.09-6.37,0-10,0V76.61c3.4,0,6.71.09,10,0,4.2-.15,6.29,1.8,6.3,6,0,10.22,0,20.44,0,30.66,0,4.18-2.08,6.16-6.18,6.16H365.78v17h10.3c4.16,0,6.13,2.09,6.12,6.22q0,15.09,0,30.18c0,4.32-1.88,6.57-6.36,6.44-3.19-.09-6.37,0-10.38,0,0,3.51.06,6.78,0,10.05-.12,5.28-1.27,6.46-6.62,6.5-9.9.07-19.8,0-29.7,0-4.37,0-6.55-1.77-6.36-6.3C322.9,186.35,322.79,183.17,322.79,179.48Zm-203.44,0c0,3.69,0,7,0,10.36,0,3.86-1.74,6-5.78,6q-15.55,0-31.12,0c-4.27,0-6-2.15-5.87-6.3.13-3.29,0-6.6,0-10.27H59.44c0,3.76-.07,7.07,0,10.37.11,4.18-1.81,6.24-6,6.2-4.63,0-9.25,0-13.88,0H26.65a12.49,12.49,0,0,0-.44,1.83c0,2.71,0,5.43-.08,8.14-.1,5.3-1.49,6.68-6.92,6.77-3.12,0-6.23,0-9.32,0v23.49H20.11c4.15,0,6.1,2,6.05,6.21q-.15,12,0,23.94c.05,4.19-1.79,6.22-6,6.12-3.42-.08-6.85,0-10.12,0v23.76c3.54,0,6.73.09,9.9,0,4.15-.15,6.28,1.6,6.25,5.89q-.08,12.21,0,24.43c0,4.3-2.23,6-6.26,6H10v23.55H20.35c3.93,0,5.87,1.92,5.79,5.91-.07,3.46,0,6.91,0,10.46H49.86c0-3.48.11-6.66,0-9.82-.19-4.38,1.7-6.59,6.16-6.57q12,0,23.95,0c4.44,0,6.38,2.16,6.26,6.52-.09,3.28,0,6.57,0,9.95h23.61c0-3.53,0-6.85,0-10.16-.08-4.09,1.68-6.32,6-6.31,8.14,0,16.28,0,24.42,0,3.93,0,5.88,1.92,5.81,5.91-.05,3.45,0,6.91,0,10.46h23.7c0-3.19,0-6,0-8.9,0-6.29,1.18-7.42,7.63-7.47,2.82,0,5.63,0,8.52,0V332.37h-9.93c-4,0-6.26-1.84-6.24-6.09.05-8.14,0-16.28,0-24.42,0-3.94,1.93-5.87,5.9-5.81,3.45.05,6.9,0,10.24,0V272.31c-3.57,0-6.74-.07-9.9,0-4.48.12-6.33-2.07-6.28-6.45q.16-11.73,0-23.46c-.06-4.49,2.13-6.41,6.43-6.36,3.28,0,6.56,0,9.85,0V213.12a5.11,5.11,0,0,0-1.16-.45c-2.55-.06-5.1-.08-7.65-.11-6-.08-7.39-1.47-7.43-7.29,0-3,0-6,0-9.47-8.93,0-17.36,0-25.78,0-6.26,0-7.43-1.26-7.48-7.65,0-2.83,0-5.65,0-8.68ZM186,86.18c-3.77,0-6.94,0-10.12,0-4.09,0-6.24-1.86-6.23-6.09,0-8.14,0-16.28,0-24.42,0-3.94,2-5.87,5.91-5.83,3.46,0,6.91,0,10.22,0V26.14c-3.27,0-6.12,0-9,0-6-.06-7.14-1.21-7.17-7.4,0-3,0-5.93,0-8.74H146c0,3.72,0,7,0,10.38,0,4-1.94,5.8-5.9,5.78q-12.21-.09-24.43,0c-4,0-5.84-2-5.84-5.87V10H86.18c0,3.55,0,6.73,0,9.92.06,4.09-1.72,6.28-6,6.25q-12.23-.08-24.43,0c-4.28,0-6.05-2.13-5.93-6.26.1-3.3,0-6.6,0-10H26.13c0,3.59-.06,6.92,0,10.23.11,4.27-2,6.13-6.14,6-3.31-.09-6.62,0-10.15,0V49.86c3.7,0,7.18,0,10.65,0,3.73,0,5.62,1.82,5.62,5.57,0,8.3,0,16.6,0,24.9,0,4-2,5.85-5.89,5.86H9.81V109.8c3.49,0,6.8,0,10.11,0,4.09-.07,6.28,1.63,6.24,6-.09,8.14-.07,16.28,0,24.42,0,4-2,5.83-5.89,5.8-3.46,0-6.91,0-10.3,0v23.68c3.68,0,7,0,10.36,0,4,0,5.87,1.91,5.82,5.87,0,3.44,0,6.88,0,10.32H49.86c0-3.56.06-6.74,0-9.91-.1-4.11,1.69-6.3,5.95-6.28q12.21,0,24.43,0c4,0,5.9,1.95,5.94,5.84,0,3.46,0,6.91,0,10.49H109.8c0-3.7,0-7.18,0-10.65,0-3.64,1.77-5.67,5.56-5.67q12.45,0,24.9,0c3.72,0,5.65,1.79,5.67,5.54,0,3.47,0,6.95,0,10.72h23.71c0-3.69,0-7.17,0-10.64,0-3.7,2-5.59,5.65-5.61,3.47,0,6.94,0,10.55,0V146H175.58c-3.9,0-5.94-1.79-5.93-5.8q0-12.21,0-24.43c0-3.95,1.85-5.93,5.8-5.93H186Zm50.07,99.76c0-3.73-.07-7.2,0-10.66s1.89-5.63,5.66-5.63h24.9c3.7,0,5.65,1.78,5.65,5.54v10.71h23.77c0-3.5.06-6.81,0-10.12-.09-4.19,1.86-6.18,6.06-6.15,8,.05,16,.08,23.95,0,4.5,0,6.37,2.19,6.32,6.48,0,3.28,0,6.56,0,9.78h23.52c0-3,0-5.67,0-8.35.05-6.72,1.17-7.86,7.73-7.89,2.83,0,5.66,0,8.68,0V146c-3.63,0-7,0-10.27,0-4.21.07-6.15-2-6.14-6.14q0-12,0-23.95c0-4.15,2-6.19,6.16-6.11,3.44.06,6.87,0,10.28,0V86.18c-3.75,0-7.23,0-10.71,0-3.7,0-5.65-2-5.68-5.62-.08-8.3-.07-16.6,0-24.9,0-3.86,1.94-5.9,5.95-5.81,3.46.07,6.91,0,10.39,0V26.13c-3.35,0-6.36,0-9.36,0-5.69-.08-6.92-1.32-7-7.14,0-3,0-6,0-9H332.36c0,3.67,0,7,0,10.35,0,3.89-1.93,5.87-5.92,5.85q-12.21-.06-24.42,0c-4.25,0-6.11-2-6-6.19.1-3.31,0-6.62,0-10.1H272.3c0,3.55-.09,6.86,0,10.17.13,4.23-1.82,6.16-6,6.12-8-.07-16-.1-24,0C237.82,26.22,236,24,236,19.7c.05-3.27,0-6.55,0-9.82H212.53c0,3.73.07,7.2,0,10.68-.1,3.63-1.94,5.6-5.7,5.57-3.47,0-6.94,0-11,0V31.8c0,7.19,0,14.37,0,21.55,0,4.19-1.92,6.18-6.12,6.09-3.43-.07-6.86,0-10.11,0V76.61c3.65,0,7,.07,10.31,0,4-.11,5.91,1.77,5.91,5.74,0,10.38,0,20.75,0,31.13,0,4-2,5.86-5.86,5.89-3.44,0-6.89,0-10.37,0v17.06c3.83,0,7.34-.07,10.84,0s5.33,1.84,5.37,5.37c0,2.08,0,4.15,0,6.23v21.61c3.92,0,7.11.09,10.29,0,4.44-.15,6.49,2,6.47,6.33,0,3.29,0,6.58,0,10Z"/><path class="cls-1" d="M422.34,422.32c0,3.85,0,7.16,0,10.47,0,4.09-2,6.12-6.22,6.09-10.22-.09-20.43-.06-30.65,0-4.24,0-6.09-2.1-6-6.22.06-3.18,0-6.36,0-9.92H362.29v10.5c0,3.72-1.84,5.62-5.57,5.62h-31.6c-3.82,0-5.49-2.1-5.55-5.71-.05-3.34,0-6.68,0-10.42H302.51c0,3.21,0,6.49,0,9.77,0,4.29-1.9,6.45-6.4,6.4-10.05-.12-20.11-.1-30.17,0-4.45,0-6.43-2-6.29-6.41.1-3.16,0-6.33,0-10.14-3.65,0-6.94,0-10.23,0-4.37.06-6.41-2-6.36-6.42.11-8.75,0-17.5,0-26.88-3.85,0-7.3,0-10.75,0-4,.06-6-2-6-5.81q-.09-12.45,0-24.9c0-3.64,2-5.58,5.71-5.62,3.48,0,7,0,10.72,0V329.07c-3.48,0-6.92,0-10.36,0-4.2.06-6.13-2-6.11-6.17q0-12,0-23.94c0-4.15,2-6,6.21-6.11,10.55-.35,10.54-.45,10.55-10.91q0-8.38,0-16.76c0-3.74,1.89-5.57,5.63-5.54,3.47,0,7,0,10.91,0,0-3.44,0-6.43,0-9.42.05-5.95,1.1-7.09,6.93-7.14,7.34-.06,14.69-.16,22,0,3.32.09,4.49-.93,4.37-4.33-.47-12.7-.17-12.64,12.64-12.5,5.59.06,11.18-.05,16.76,0,5.12.07,6.57,1.5,6.71,6.53.08,3.16,0,6.32,0,9.84h23.61c0-3.67,0-7.14,0-10.61,0-3.7,2-5.7,5.6-5.73,8.46-.09,16.92-.11,25.38,0,3.37.05,5.3,2,5.32,5.47s0,7,0,11.21h23.08c10,0,10.23.28,10.24,10.19v6.39c3.73,0,7.18,0,10.63,0,3.95,0,5.89,1.88,5.89,5.84q0,15.56,0,31.12c0,4-2.09,5.81-5.92,5.85-3.32,0-6.64,0-10.28,0v17h10.05c4.06,0,6.2,1.82,6.17,6.11-.08,10.21-.06,20.43,0,30.64,0,4.23-2,6.13-6.17,6-3.18-.09-6.35,0-9.94,0v17.18c3.31,0,6.62,0,9.92,0,4.14-.07,6.2,1.84,6.19,6.06-.05,10.21-.07,20.43,0,30.64,0,4.25-2.05,6.15-6.13,6.17C429.57,422.33,426.38,422.32,422.34,422.32Zm6.6-129.41V269.22c-3.68,0-7,0-10.36,0-4,0-5.87-1.91-5.82-5.88.05-3.44,0-6.87,0-10.69H390c-10.33,0-10.56-.23-10.56-10.34V236.2H362.29c0,3.6-.09,6.91,0,10.22.15,4.25-1.93,6.21-6,6.22-10.22,0-20.44,0-30.65,0-4.17,0-6.15-2.07-6.1-6.22,0-3.31,0-6.63,0-10.22h-17c0,3,0,5.67,0,8.36,0,6.86-1.22,8.06-8.1,8.08-8.25,0-16.49,0-25.16,0,0,3.59,0,6.59,0,9.59-.06,5.56-1.48,6.94-7.18,7-3,0-6,0-9.38,0,0,9.31,0,18,0,26.8,0,4.34-2,6.53-6.38,6.45-3.3-.05-6.6,0-10,0v17h10.37c3.9,0,6,1.93,6,5.85,0,10.38.05,20.76,0,31.13,0,3.85-1.93,5.9-6,5.79-3.45-.09-6.9,0-10.48,0v17.18h6.85c9.05,0,9.62.58,9.63,9.86v23.44c3.85,0,7.16.06,10.47,0,4.21-.08,6.17,1.93,6.1,6.11-.06,3.43,0,6.86,0,10.19h23.69c0-3.55.06-6.86,0-10.17-.1-4.17,1.77-6.18,6-6.14,8,.09,16,.12,23.94,0,4.57-.06,6.33,2.19,6.24,6.48-.07,3.28,0,6.56,0,9.85h23.6c0-3.69,0-7.16,0-10.63,0-3.66,1.82-5.65,5.58-5.65,8.3,0,16.6,0,24.9,0,4,0,5.89,1.89,5.84,5.86-.05,3.45,0,6.91,0,10.35h23.73c0-2,0-3.76,0-5.48,0-10.72,0-10.72,10.49-10.73H429V389H418.35c-3.75,0-5.58-1.87-5.58-5.6,0-8.3,0-16.61,0-24.91,0-4,2-5.81,5.92-5.81h10.4V329.07c-3.51,0-6.82,0-10.13,0-4.1.07-6.26-1.67-6.21-6q.12-12.21,0-24.43c0-4.05,2-5.81,5.89-5.78C422,292.93,425.3,292.91,428.94,292.91Z"/><path class="cls-1" d="M100.38,242.9c13.22.15,23.51,4.43,31.79,13.34,2.5,2.69,5.11,5.69,1.46,9-3.46,3.1-6,.26-8.38-2.32A31.74,31.74,0,0,0,70,284a31.87,31.87,0,0,0,19.39,29.39A31.52,31.52,0,0,0,124,306.82c.8-.78,1.56-1.6,2.29-2.44,2.15-2.48,4.68-3.71,7.42-1.22s1.84,5-.26,7.57c-10.88,13.31-30,18.31-46.43,12-18.72-7.18-29.39-26.56-25.67-46.65C64.82,257.21,82,243,100.38,242.9Z"/><path class="cls-1" d="M97.81,56.61c10.92,0,18.59,6,21,16.44q6.41,28.17,12.82,56.33c.18.78.44,1.54.59,2.32.59,3.17.74,6.38-3.27,7.24s-5.38-1.81-6.13-5.09c-1.23-5.44-2.64-10.83-3.67-16.31-.48-2.56-1.56-3.39-4.11-3.37-11.32.11-22.64.14-34,0-2.85,0-3.88,1-4.4,3.67-1.07,5.47-2.51,10.86-3.67,16.3-.75,3.5-2.53,5.72-6.27,4.75-3.57-.92-3.82-3.8-3.1-6.92,4.53-19.7,9-39.41,13.59-59.1C79.63,62.45,87.09,56.66,97.81,56.61Zm18.25,47.77c-2.41-10.62-4.61-20.72-7-30.78-1.14-4.76-5.25-7.36-11-7.41-5.49-.06-9.82,2.33-10.93,6.72-2.59,10.33-4.86,20.74-7.35,31.47Z"/><path class="cls-1" d="M307.18,98c7.11,6.61,10,14.34,8,23.59A22.41,22.41,0,0,1,294.32,139c-12,.33-23.94.1-35.91.17-4,0-5.81-2-5.8-5.89q0-35.41,0-70.83c0-4.25,2.18-5.95,6.31-5.91,11,.08,22,0,33,0,10.25.06,18,4.62,21.94,14.08s2,18.12-5.14,25.54C308.32,96.68,307.92,97.16,307.18,98Zm-44.72-5c10.42,0,20.43.07,30.44,0a13.09,13.09,0,0,0,13.25-12.43c.5-6.91-4.44-13.68-11.51-14.06-10.61-.56-21.26-.14-32.18-.14Zm-.27,36.41c11.4,0,22.19.36,32.94-.14,6.47-.3,11.29-6.86,11.06-13.44-.23-6.87-5.35-12.6-12.31-12.85-9.54-.34-19.1-.21-28.64,0-1,0-2.88,1.9-2.91,3C262.08,113.54,262.19,121.17,262.19,129.39Z"/><path class="cls-1" d="M301,332.32c0-11.32,0-22.65,0-34,0-5.59,1.48-7,7.12-7,8.3,0,16.6-.12,24.89,0a31.43,31.43,0,0,1,31.2,31.07q.21,10.27,0,20.58a31.21,31.21,0,0,1-30.85,30.82c-8.61.19-17.22.1-25.84,0-5.09,0-6.49-1.43-6.51-6.59C300.93,355.61,301,344,301,332.32Zm9.8,31.93c8,0,15.51.19,23-.05a21.51,21.51,0,0,0,20.82-20.92c.2-7.17.19-14.36,0-21.53-.27-9.12-6.51-18.08-15.43-19.61-9.25-1.58-18.85-1.19-28.37-1.66Z"/></g></g></svg>