<svg xmlns="http://www.w3.org/2000/svg" viewBox="0 0 408.92 408.73"><defs><style>.cls-1{fill:#fff;}</style></defs><g id="Layer_2" data-name="Layer 2"><g id="Layer_1-2" data-name="Layer 1"><path class="cls-1" d="M0,192.35c1.06-7.75,1.88-15.53,3.21-23.23A204.21,204.21,0,0,1,164.73,3.88c110.17-21.59,217,49,239.71,158.84,10.12,49,3.05,95.69-20.93,139.74a201.17,201.17,0,0,1-50.42,60.65,22.62,22.62,0,0,1-3.59,2.5,7.82,7.82,0,0,1-9.74-1.94,7.54,7.54,0,0,1,.1-9.89,80.07,80.07,0,0,1,7.09-6.41c35.16-30.52,56.07-68.94,63.4-114.79a174.74,174.74,0,0,0,1-49.33c-3.32,4.1-6.64,8.75-10.54,12.85-6,6.26-12.25,4.77-15.21-3.26-2.43-6.61-5.24-13.12-7.11-19.88-2.31-8.36-7.83-14.38-13.45-20.36-1.3-1.39-3.84-1.61-6.41-2.09,3,7-1,10.75-5.33,14.64a111.46,111.46,0,0,1-38.09,21.94c-5.68,2-9,.71-11.85-4.67Q273.56,163.91,264,145.3a11.43,11.43,0,0,1-1.38-5.69c.24-3.41-1.22-5.54-3.42-8a39.25,39.25,0,0,0-18.42-11.18c-5.05-1.5-7-4.93-6.24-9.2s4.7-7.46,9-6.26c8,2.23,16.29,4,22.17,10.86a86.74,86.74,0,0,0,8.62,8.3c3,2.67,4,5.94,4.26,9.88a24.6,24.6,0,0,0,2.28,9c4.44,9.05,9.25,17.91,14.45,27.85l26.11-15.52c-1.17-2.34-2-3.69-2.53-5.15a11.34,11.34,0,0,1,9.86-15.33,119.67,119.67,0,0,1,15.15.06c5.91.39,10.21,3.83,14.2,8,8.23,8.62,14.46,18.3,17.36,30.2a27.42,27.42,0,0,1,9.66-16.33c.67-.58.76-2.41.46-3.47a183.31,183.31,0,0,0-46.77-80.93c-31.46-31.76-69.58-50.06-114-55.08a6,6,0,0,0-4.55,1.85c-6.54,7.88-12.66,16.11-19.32,23.89a21.7,21.7,0,0,1-8.51,6.05c-15.06,5.6-30.31,10.7-45.41,16.18a8.26,8.26,0,0,0-4.31,3.94c-3.34,7.38-6.21,15-9.45,22.39a5.08,5.08,0,0,0,.69,5.8c3.36,4.43,6.5,9,10,13.85,5-7.13,11-12.69,19.07-14.89a71.21,71.21,0,0,1,15.68-2.16c5.17-.21,8.7,3.44,8.67,7.94s-3.57,7.86-8.77,7.87-10.09.4-14.54,3.28a19.36,19.36,0,0,0-8.32,10.72c5.7-.3,11-1,16.27-.77a63.32,63.32,0,0,1,15.62,2.12c5.37,1.61,8.33,5.85,8.23,11.86a4.38,4.38,0,0,0,1.57,3.14c2.32,1.71,4.9,3.07,7.34,4.56,5.51-6.71,12-8.65,20-5.84,4,1.41,8.1,2.59,12.21,3.64,11.12,2.86,18,10.18,22.23,20.51q4.83,11.79,10,23.45a79.25,79.25,0,0,0,4.36,8.05A14.09,14.09,0,0,0,284.88,202a44.38,44.38,0,0,1,9.29,2.13c7.38,2.51,10.92,9.63,7.41,16.58-2.64,5.24-6.54,9.94-10.4,14.43-4.67,5.44-10,10.3-14.84,15.59A11.9,11.9,0,0,0,273.73,263c.74,2.4,1.3,4.87,1.89,7.32,1.76,7.25.48,14.27-4.67,19.35-8.07,7.93-10.56,19.32-18.2,27.42-1.3,1.39-1.75,3.93-1.93,6-.86,10.3-21.37,26.57-31.61,26.79-6.58.15-11.68-1.92-15.46-7.22a26,26,0,0,1-3.12-5.09c-5.59-13.63-11.25-27.24-16.48-41-2.17-5.69-1.9-11.74,0-17.63.83-2.52,1.57-5.08,2.18-7.66,1.19-5,.42-9.56-3.27-13.29a26.34,26.34,0,0,1-8-19.72c.07-4.75-2.16-6.38-6.88-5.61-5.5.89-10.95,2.43-16.48,2.74-35.71,2-58.31-34.92-42.33-67.2a64.57,64.57,0,0,1,7.25-10.93c6.94-8.91,14.1-17.65,21.38-26.71-6.47-9.06-12.75-18.26-19.47-27.12-3.47-4.56-4-8.69-1.64-14,4.48-9.92,8.46-20.07,12.51-30.18a12.31,12.31,0,0,1,8-7.63Q161.14,43.52,184.76,35a13.29,13.29,0,0,0,5.32-3.79c4-4.69,7.76-9.64,12.13-15.15-43,1-80.51,14.34-113.1,39.44C93.33,61,98.28,65.8,101.3,71.63c6.2,12,5.6,24.8-3.44,34.73-11.84,13-19.7,28.29-28.28,43.22-3.33,5.79-7.13,10.78-12.93,14.22-2.49,1.48-4.74,3.38-7.47,5.34,3,4.4,5.91,8.63,8.77,12.9,4.52,6.76,2.09,12.75-5.82,14.07-7.21,1.2-14.46,2.22-21.7,3.19-5,.68-9.95.64-13.83-4.2v20.64c6.34-2.05,12.29-3.82,18.13-5.89a10.78,10.78,0,0,1,11.13,1.86c9.22,7.22,18.79,14,27.84,21.4,4.29,3.51,9.1,4.59,14.18,5.56,7,1.35,14.26,2.09,20,7.07,7,6,10.18,13.79,8.5,22.78a29.74,29.74,0,0,0,1.34,15.94c2.84,8.12,2.11,16-2.86,23.21-3.29,4.8-7.95,7.64-13.26,9.79a6.07,6.07,0,0,0-3.24,3.71Q95.05,337,92.32,352.88A5.08,5.08,0,0,0,94,357a186.81,186.81,0,0,0,173.6,24.78c1.25-.45,2.51-.86,3.79-1.24,5.07-1.49,9.22.32,10.77,4.68s-.59,8.5-5.62,10.33c-5.86,2.13-11.73,4.51-17.8,5.74-13,2.61-26.14,4.55-39.22,6.78-1,.17-2.06.43-3.09.65H194.82a22.13,22.13,0,0,0-3.09-.59c-33.91-2.14-65.59-11.7-94.33-29.82C45.74,345.74,14.31,299.18,3.1,239.1,1.7,231.57,1,223.91,0,216.3Zm177.43-53.51c-7.78.54-14.65,1.07-21.53,1.48a13.27,13.27,0,0,0-10.35,5.79c-5.61,7.42-11.54,14.59-17.24,21.95a45.8,45.8,0,0,0-4.75,7.34C114.23,194,124.17,215.8,144,219c5.93.95,12.4-.42,18.45-1.62,16.88-3.35,27.5,4.32,28.67,21.44a12.92,12.92,0,0,0,3.79,8.45,27.58,27.58,0,0,1,7.82,22.23c-.37,4-2,8-2.52,12s-1.51,8.47-.23,12c4.57,12.59,10,24.86,15.12,37.25.2.48.43,1.16.82,1.33,1.28.54,3.22,1.68,3.88,1.2,5-3.64,9.74-7.61,14.57-11.48,1.46-9.1,6.9-16.19,11.9-23.5.15-.21.2-.5.34-.72,3-4.67,5.4-9.78,9-13.88,3.91-4.46,5.48-8.53,3.39-14.37-4.19-11.74-1.37-22.28,6.94-31.33,4.13-4.5,8.66-8.63,12.95-13,2-2,3.87-4.24,6.08-6.67a35.41,35.41,0,0,0-4-1c-10.58-1.12-17.47-7.51-22.14-16.33-4.21-8-7.77-16.29-11.3-24.59-6.87-16.19-6.79-16.17-23.55-20.93-2.61-.74-4.25-.6-6.14,1.65-3.51,4.18-8.42,6.33-13.57,4.12-7.13-3.07-13.85-7.09-20.74-10.72C179,148.26,175.82,145.17,177.43,138.84ZM77.3,344.16c.53-1.81.8-2.52.94-3.26,1.87-9.65,3.79-19.3,5.55-29,.74-4.11,2.91-6.71,6.92-7.84,1.53-.44,3-1,4.54-1.5,7.31-2.46,9.57-6.52,7.11-13.73s-3.81-14.49-1.78-22.24c1.41-5.38-1.56-9.23-7.11-10.53-3.88-.9-7.79-1.76-11.73-2.3a31.81,31.81,0,0,1-17.16-7.61c-4.31-3.74-9-7-13.61-10.44-4.36-3.27-8.44-8.5-13.19-9.21-5.09-.76-10.78,2.87-16.28,4.35-2.74.75-3.36,2-2.88,4.82a188.1,188.1,0,0,0,39.05,86.65C63.59,329.78,70.37,336.51,77.3,344.16ZM38.36,181.66c-2-3-3.83-5.59-5.59-8.23-3.93-5.89-3.28-9.8,2.39-13.92C40,156,45,152.63,49.72,149a17.73,17.73,0,0,0,4.25-4.6c9.92-16,17.56-33.25,30.79-47.25,8.47-9,3.87-23.6-7.64-28.35a4.52,4.52,0,0,0-4,.67Q30,112.06,19.15,171.76a5.2,5.2,0,0,0,.2,3.34C24,182.34,29.72,184.31,38.36,181.66Z"/><path class="cls-1" d="M327.66,276.21a27.49,27.49,0,0,1-.56,3.64c-4.2,13.57-8.35,27.14-12.71,40.66a35.68,35.68,0,0,1-3.93,7.8c-3.58,5.67-8.23,10.24-15.52,9.05-7.87-1.28-12.29-6.89-14.63-14.18-1.82-5.65-.26-11.12,1.72-16.35a23.59,23.59,0,0,0,1.65-11.59c-1.13-9.23,2.89-16.21,11.19-20.07,5.8-2.7,9.7-6.54,12-12.48,1.69-4.43,4-8.75,9.89-8.08,5.69.64,6.75,5.23,7.88,9.7C325.65,268.42,326.71,272.52,327.66,276.21Zm-32,43.52L297,320c5.42-10.5,8-22,11.51-34-2.61,1.31-4.68,1.87-6,3.16s-3,3.5-2.78,5c1.2,6.88-.56,13.09-3,19.33C295.87,315.43,295.94,317.65,295.63,319.73Z"/><path class="cls-1" d="M212.64,110.21c-4.51-.16-8.25-3.91-8.13-8.16a8.16,8.16,0,0,1,8-7.78,8.27,8.27,0,0,1,8.25,8.43A7.75,7.75,0,0,1,212.64,110.21Z"/><path class="cls-1" d="M302.17,382.47a7.63,7.63,0,0,1-7.64-8,8,8,0,1,1,16,.07A8.26,8.26,0,0,1,302.17,382.47Z"/></g></g></svg>