<svg xmlns="http://www.w3.org/2000/svg" viewBox="0 0 367.32 409.6"><defs><style>.cls-1{fill:#fff;}</style></defs><g id="Layer_2" data-name="Layer 2"><g id="Layer_1-2" data-name="Layer 1"><path class="cls-1" d="M175.68,0h16a9.13,9.13,0,0,0,1.88.54,115.7,115.7,0,0,1,64.58,25.71c26.41,21.39,41.95,49.11,44.48,83.11,1.46,19.63.73,39.42.81,59.15.06,15.89-10,25.83-26,25.89H264.78c-2.24,21.81-10,40.84-25.2,56.51,3.77,7.57,7.66,14.85,11,22.36,1.68,3.73,4.1,5.6,7.94,6.86,14.12,4.66,28.78,8.35,42,14.87,42.34,20.85,63.18,56.36,66.68,102.87.38,5.14-.93,9.13-5.55,11.73H5.61C1,407-.24,403,0,397.87.78,384.47,3.1,371.41,8.12,359c13.09-32.46,35-56.2,68.45-68.13,11.5-4.1,23.18-7.71,34.71-11.72a7.74,7.74,0,0,0,4-3.35c3.86-7.28,7.34-14.76,11.19-22.06,1.15-2.19.56-3.34-.8-5.15-4.33-5.7-8.77-11.4-12.28-17.61-2-3.56-4-4.73-7.92-4.64-10.85.26-19.34-4.35-23.39-14.59-1.88-4.76-1.41-10.42-2.26-15.63-.23-1.42-1-3.34-2.14-3.94-9.26-4.93-13.74-12.6-13.75-23,0-15.32.06-30.65,0-46-.11-20.59,3.89-40.26,13.6-58.49,16-30.16,40.44-50.34,73.25-59.84C158.84,2.5,167.35,1.58,175.68,0ZM121,210.4c7.79,0,14.43-.09,21.07,0,2.15,0,3.19-.61,4.2-2.61,4.34-8.59,11.53-13,21.1-13.38,5.45-.21,10.91-.19,16.36,0,13.57.45,23.85,10.91,23.81,24.05s-10.41,23.49-24,23.86c-5.18.15-10.38.13-15.56,0-9.91-.21-17.22-4.74-21.87-13.55-.46-.87-1.19-2.24-1.84-2.27-4.93-.19-9.87-.1-15.36-.1,7.39,12,16.55,21,28.68,26.36,38,16.86,77.55-4.92,88-44.08,3.55-13.29,4.81-27.24,6.6-41,1.36-10.4,1.91-20.9,2.84-31.48-1.15-.27-1.76-.46-2.39-.57-7.59-1.34-15.27-2.27-22.75-4.08A143,143,0,0,1,166.84,98.2a6.75,6.75,0,0,0-4.47-1.79A55.69,55.69,0,0,0,139.08,104c-11.52,6.61-18.37,17.54-26,27.77-.68.92-.69,2.53-.6,3.79.81,11,1.37,22.09,2.66,33.07C116.79,182.46,119,196.24,121,210.4Zm-6,84.38c-10.39,3.48-19.9,6.88-29.53,9.86-25.06,7.73-43.39,23.61-56.16,46.22A100.22,100.22,0,0,0,16.47,393.4H169.66C148.11,362,126.94,331.12,115.09,294.78Zm137.52,0c-2,4.95-3.73,9.51-5.59,14a329.2,329.2,0,0,1-37.25,66.32c-4.11,5.74-7.63,11.91-11.65,18.25H350.69a19.69,19.69,0,0,0,0-2.05c-3.05-27.72-15.15-50.66-36.06-69.05C296.84,306.7,274,302.9,252.61,294.82ZM112.43,104.6l1.3,1a9.19,9.19,0,0,1,1.1-2.14c12-13,26.89-20.4,44.39-23,7.37-1.08,13,.47,18.7,5.81,21.65,20.27,47.85,30.54,77.13,33.37a3.37,3.37,0,0,0,.36-.81c2.68-28.29-14.82-56.21-41.29-66.51-12.28-4.77-25-4.53-37.74-4.35-18.31.25-33.95,7-46.61,20.21A63.31,63.31,0,0,0,112.43,104.6Zm-16.72,7.22c.13-1.56.22-2.87.36-4.18,3.75-35.35,22.25-59.35,55.55-71.57,14.44-5.3,29.63-4.67,44.62-3.76A80,80,0,0,1,268.39,91.6c1.75,6.6,2.52,13.47,3.75,20.21h14.59c-2.41-48.15-44.24-96-103.52-95.7-60.08.28-100.53,49-102.59,95.71Zm87.18,199.6c-9.25,9.81-18.23,19.24-27,28.84-.62.68-.28,3,.39,4,8.85,13.75,17.84,27.41,26.81,41.08.11.17.45.18.84.33,9.3-14.16,18.66-28.33,27.87-42.6.45-.69,0-2.58-.63-3.27C201.93,330.41,192.59,321.13,182.89,311.42Zm11.53-12.2,27.49,27.52q8.28-20.08,16.46-40.11a3.63,3.63,0,0,0-.23-2.6c-3.25-6.69-6.59-13.32-10.12-20.4Zm-48.69,28.29,25-26.47-33.39-33.43c-2.44,4.87-5.22,10.31-7.86,15.82a4.74,4.74,0,0,0-.45,3.32C134.36,300,139.86,313.26,145.73,327.51Zm-46-149.12c-1.35-17-2.66-33.57-4-50.06H79.87c0,14-.08,27.71,0,41.4,0,5.31,3.2,8.41,8.44,8.63C92,178.51,95.74,178.39,99.71,178.39Zm167.9,0c3.37,0,6.65,0,9.93,0,7-.06,9.89-3,9.91-10,0-12,0-23.93,0-35.9V128.2H271.58C270.26,144.92,269,161.44,267.61,178.4Zm-92.1,47.94c2.79,0,5.6.18,8.37,0a8,8,0,0,0,7.7-7.73,7.89,7.89,0,0,0-7.76-8.06c-5.44-.26-10.91-.25-16.35,0a7.9,7.9,0,0,0-7.7,7.71c-.1,4.21,3.15,7.71,7.77,8.08C170.18,226.52,172.85,226.35,175.51,226.34Zm20.91,47.44H169l14.05,14.11ZM96.18,194.51c-1.35,9.33.27,16.17,8.9,15.48-.93-5.16-1.86-10.3-2.8-15.48Z"/><path class="cls-1" d="M300.39,332a27,27,0,0,1,5.07,2.7,79.32,79.32,0,0,1,20.89,25.36c2.42,4.59,1.4,9.24-2.49,11.53s-8.54,1.22-11.15-3.45a76.68,76.68,0,0,0-17.9-21.71c-2.87-2.4-4.07-5.56-2.52-9.29C293.6,334,296.07,332.48,300.39,332Z"/><path class="cls-1" d="M271.62,332.74a7.94,7.94,0,1,1,7.79-8.07A8.17,8.17,0,0,1,271.62,332.74Z"/></g></g></svg>