<svg xmlns="http://www.w3.org/2000/svg" viewBox="0 0 360.02 359.44"><defs><style>.cls-1{fill:#fff;}</style></defs><g id="Layer_2" data-name="Layer 2"><g id="Layer_1-2" data-name="Layer 1"><path class="cls-1" d="M246,336.75v22.3H234c0-7.34-.07-14.54,0-21.74,0-2.22-.43-3.26-2.91-3.68-7-1.19-14-2.73-20.93-4.18-4.82-1-6.19-2.73-6.2-7.75q0-36.48,0-73v-4l-.73-.26-7.23,13.15c-1.32,2.4-2.69,4.78-3.94,7.22-1.33,2.59-3.19,5.14-6.2,4.41a10.22,10.22,0,0,1-5.83-4.4c-8.23-14.54-16.14-29.25-24.15-43.91-2.75-5-5.45-10.09-8.3-15.06-.54-.94-1.7-2.17-2.57-2.17-8.11,0-16.32-.4-24.3.69-10.2,1.38-17.55,7.56-21.74,17-3,6.83-5.67,13.84-8.41,20.79A9,9,0,0,0,90,245.4q0,33.87,0,67.74c0,.56.08,1.12.17,2.37.81-1.31,1.28-2,1.67-2.71q12.69-23.54,25.35-47.08c2.71-5,5-10.31,8.1-15.11,2.25-3.52,5.45-6.43,8.57-10l8.38,10a27.76,27.76,0,0,0-3.9,2.93,40.44,40.44,0,0,0-3.07,52.18,13.41,13.41,0,0,1,2.78,8.62C137.94,329.12,138,344,138,359H126V348.61c0-10.73.07-21.46-.07-32.18a12.85,12.85,0,0,0-1.55-5.14c-2.78-5.78-5.72-11.47-8.64-17.28-.47.8-1.16,1.91-1.77,3.05q-13.22,24.74-26.41,49.48C82,357,69.48,361.79,56.82,358.33a26.06,26.06,0,0,1-19.14-26.74c.87-13.94,2.23-27.84,3.16-41.78.71-10.56,1.08-21.14,1.58-31.26-.74-.64-.93-.95-1.1-.94-11.5.61-21.41-4.07-31.14-9.32C3.41,244.64,0,239,0,231.28c0-5,0-10,0-15C.09,205,9.75,199,20,203.84c12.37,5.91,15.84,6.56,29.92,5.53-.4-1.07-.75-2.08-1.15-3.06C45,197.05,49,187.08,58,183.22a17.42,17.42,0,0,1,23.11,9.25c2.9,6.6,5.46,13.35,8.19,20.09,5-3.77,5-8.62,4.2-14-2-12.67-2.11-25.39,1-37.9a153.19,153.19,0,0,1,6-18.45,93.86,93.86,0,0,0,6.33-40.28c-.78-13.53-2-27.07,1.16-40.58C116.7,24.58,150.33-1,189.09,0,225.9,1,258.34,29.16,264.9,65.5c2.25,12.48.81,24.89.22,37.31-.58,12.25.26,24.42,5.17,35.6,9.25,21.05,11.33,42.67,7.91,65.13-.26,1.7.64,3.71,1.41,5.39,2.48,5.42,5.15,10.75,7.74,16.12.48,1,.91,2,1.36,3,12-5.1,24.91-5.4,37.32-7.89,8.44-1.69,17-2.85,25.48-4.29,5.49-.92,8.48,1.41,8.48,6.92q0,49.77,0,99.55c0,3.22-1.22,5.43-4.25,6.78a4.49,4.49,0,0,0-2.08,2.53c-1.62,5.17-5,8.2-10.33,9.07-4.07.67-8.11,1.53-12.19,2-2.26.27-3.36,1.28-4.43,3.27-4.71,8.8-12.24,13.47-22.23,13.17-9.82-.29-17.08-5.21-21.23-14.15-1.27-2.73-2.75-3.55-5.8-3.86-9.52-.95-19-2.55-28.46-3.91C248.16,337.14,247.31,337,246,336.75Zm-140.59-140c4-1.37,7.53-3,11.25-3.79a64.62,64.62,0,0,1,11.87-1.25c7.49-.18,15,0,22.5-.06,4.67,0,5-.3,5-4.81,0-6-.13-12,.07-18,.08-2.45-.81-3.7-2.81-5-15.16-10.11-24.69-24.16-26.48-42.3-1.22-12.49-.71-25.16-.59-37.75,0-1.83,1.72-4.21,3.35-5.37a80.53,80.53,0,0,0,26.17-31.21c3-6.21,6.51-6.93,11.73-2.52A145.24,145.24,0,0,0,239.31,77.7c5.29.85,6.68,2.58,6.69,8q0,13.09,0,26.19c0,22.4-9.28,39.89-27.91,52.46a5.09,5.09,0,0,0-2,3.46c-.19,6.6,0,13.22-.12,19.83,0,2.91,1.16,4,4,4,7.12-.1,14.25.11,21.37-.07,8.39-.22,16.43,1,23.93,4.94a3.12,3.12,0,0,0,1.3.1c3-17.92.36-34.86-6.59-51.37-5.81-13.77-7.62-28.27-6.86-43.2.52-10.06,1.43-20.28.31-30.23-5.38-47.33-57.19-74.54-99.11-51.9C127.87,34.21,116,57.38,118.18,87.18c1.64,22.57.47,44.38-8.82,65.56C103.29,166.59,103,181.56,105.39,196.7Zm59-139.06c-3.88,5.31-7.2,10.64-11.32,15.27s-9.24,8.7-13.76,13.17a5.52,5.52,0,0,0-1.24,3.58q-.15,12.35,0,24.7c.25,24.27,18.54,44.15,43.27,47.11,22.53,2.69,45.14-12.84,51-35.25,3.22-12.25,1.06-24.74,1.76-37.25A157.34,157.34,0,0,1,164.38,57.64ZM216,246.82c0,23.54,0,46.48.1,69.41a3.49,3.49,0,0,0,2.17,2.54c5.7,1.34,11.47,2.41,17.22,3.56l28.2,5.6V256.34Zm90,80c0-5.57-.06-10.8,0-16,.08-6.19,3.48-11.92,9.31-13,10.7-2,21.31-6.28,32.51-2.77V246.85c-15,3-29.77,6.07-44.59,8.86-2.74.51-3.32,1.53-3.31,4.11.1,21.57.06,43.15.07,64.72,0,1.07.12,2.13.2,3.41ZM78,245.45c0-9.64,0-18.95,0-28.27a4.07,4.07,0,0,0-.36-1.43c-2.4-6-4.73-12.05-7.24-18-1.45-3.46-4.54-4.78-7.56-3.53s-4.29,4.66-2.69,8.14c1.3,2.82,2.78,5.57,4.17,8.35,3.47,7,1.13,10.84-6.58,10.86-5.24,0-10.49-.15-15.73,0a47.32,47.32,0,0,1-25.17-5.91c-1.25-.69-2.62-1.16-4.53-2,0,7.18-.09,13.7.1,20.21a4.31,4.31,0,0,0,2.09,2.93c7.12,3.81,14,8.45,22.47,8.57C50.42,245.6,63.91,245.45,78,245.45Zm126-74.54a62.09,62.09,0,0,1-36,.05c0,4.78-.2,9.14,0,13.46.44,7.58-1,14.16-8.57,18,2.21,4.06,4.12,7.84,6.33,11.43a4.47,4.47,0,0,0,3.22,1.67q17,.18,34.06,0a4.38,4.38,0,0,0,3.16-1.75c2.21-3.59,4.12-7.36,6.29-11.36-7.29-3.66-8.95-9.93-8.58-17.29C204.2,180.5,204,175.9,204,170.91ZM53.55,281.55c-1.34,17.5-2.83,34.6-3.78,51.72-.16,2.91,1.5,6.33,3.28,8.83,3.47,4.88,9.79,6.34,15.46,4.37A14.08,14.08,0,0,0,78,333c.07-16.31,0-32.63,0-48.94a23.28,23.28,0,0,0-.28-2.53Zm234.2,47.61V257.78H276.2v71.38Zm-12.39-101c-3.72-13.61-12.43-22.34-25.18-24-7.6-1-15.42-.46-23.15-.5a2.79,2.79,0,0,0-2.05,1.17c-2.23,3.84-4.32,7.77-6.65,12,8.23,1.37,16,2.49,23.65,4C253,223,264.53,223.14,275.36,228.17ZM342,328.86c0-7.13,0-13.86,0-20.58,0-2.35-1.09-3.11-3.3-2.73-5.91,1-11.84,1.87-17.71,3.06-1.12.22-2.82,1.66-2.86,2.58-.23,7.08-.13,14.17-.13,21.61Zm-67-82.58c-2.85-6.14-6.7-8.89-11.92-9.78-9.08-1.56-18.18-3-27.27-4.56l-19.59-3.27v6Zm15-.19,57.69-11.41v-6c-16.38,2.76-32.48,5.34-48.52,8.26C294.77,237.72,291.52,240.7,290.05,246.09Zm-91.4-18.31H173.34L186,250.93ZM54.25,257.55v11.64H77.7V257.55ZM295,341.4c5.05,6.88,13.34,7.82,17.62,2.8C308,336.2,301.51,340.11,295,341.4Z"/><path class="cls-1" d="M168.24,119.93H179.7c.92,3,2.51,5.82,6.4,5.75,3.71-.07,5.32-2.67,6.16-5.79h11.36c.76,9-7.23,17.41-16.78,17.8A17.7,17.7,0,0,1,168.24,119.93Z"/><path class="cls-1" d="M168,98.87a9,9,0,1,1-9-9A9.05,9.05,0,0,1,168,98.87Z"/><path class="cls-1" d="M213.09,107.74A9,9,0,1,1,222,98.61,9,9,0,0,1,213.09,107.74Z"/></g></g></svg>